<svg xmlns="http://www.w3.org/2000/svg" viewBox="0 0 100 100" width="100" height="100">
  <!-- Hintergrund Kreis -->
  <circle cx="50" cy="50" r="48" fill="#f8f5f0" stroke="#d4a574" stroke-width="2"/>
  
  <!-- Blumen-Design -->
  <!-- Stiel -->
  <rect x="48" y="60" width="4" height="25" fill="#4a7c59" rx="2"/>
  
  <!-- Bl채tter -->
  <ellipse cx="42" cy="70" rx="8" ry="4" fill="#5a8b67" transform="rotate(-30 42 70)"/>
  <ellipse cx="58" cy="75" rx="6" ry="3" fill="#5a8b67" transform="rotate(45 58 75)"/>
  
  <!-- Bl체tenbl채tter -->
  <ellipse cx="50" cy="35" rx="6" ry="12" fill="#e8a5c4" transform="rotate(0 50 50)"/>
  <ellipse cx="50" cy="35" rx="6" ry="12" fill="#e8a5c4" transform="rotate(60 50 50)"/>
  <ellipse cx="50" cy="35" rx="6" ry="12" fill="#e8a5c4" transform="rotate(120 50 50)"/>
  <ellipse cx="50" cy="35" rx="6" ry="12" fill="#e8a5c4" transform="rotate(180 50 50)"/>
  <ellipse cx="50" cy="35" rx="6" ry="12" fill="#e8a5c4" transform="rotate(240 50 50)"/>
  <ellipse cx="50" cy="35" rx="6" ry="12" fill="#e8a5c4" transform="rotate(300 50 50)"/>
  
  <!-- Bl체tenzentrum -->
  <circle cx="50" cy="50" r="8" fill="#f9e79f"/>
  <circle cx="50" cy="50" r="5" fill="#f4d03f"/>
  
  <!-- Kleine Details -->
  <circle cx="47" cy="47" r="1.5" fill="#e67e22"/>
  <circle cx="53" cy="52" r="1.5" fill="#e67e22"/>
  <circle cx="50" cy="50" r="1" fill="#d35400"/>
</svg>